<svg height="512" viewBox="0 0 59 58" width="512" xmlns="http://www.w3.org/2000/svg"><g id="Page-1" fill="none" fill-rule="evenodd"><g id="032---History" fill-rule="nonzero"><rect id="Rectangle-path" fill="#955ba5" height="50" rx="6" width="50.083" x=".917"/><g fill="#f0c419"><path id="Shape" d="m36 26h-13c-1.6568542 0-3-1.3431458-3-3s1.3431458-3 3-3h18c1.6568542 0 3 1.3431458 3 3s-1.3431458 3-3 3z"/><path id="Shape" d="m36 37h-13c-1.6568542 0-3-1.3431458-3-3s1.3431458-3 3-3h18c1.6568542 0 3 1.3431458 3 3s-1.3431458 3-3 3z"/><circle id="Oval" cx="11" cy="12" r="3"/><path id="Shape" d="m36 15h-13c-1.6568542 0-3-1.3431458-3-3s1.3431458-3 3-3h18c1.6568542 0 3 1.3431458 3 3s-1.3431458 3-3 3z"/><circle id="Oval" cx="11" cy="23" r="3"/><circle id="Oval" cx="11" cy="34" r="3"/></g><circle id="Oval" cx="42" cy="41" fill="#24ae5f" r="17"/><path id="Shape" d="m42 50c-4.9705627 0-9-4.0294373-9-9s4.0294373-9 9-9 9 4.0294373 9 9c0 .5522847-.4477153 1-1 1s-1-.4477153-1-1c0-3.8659932-3.1340068-7-7-7s-7 3.1340068-7 7 3.1340068 7 7 7c.5522847 0 1 .4477153 1 1s-.4477153 1-1 1z" fill="#fff"/><path id="Shape" d="m50 47c-.2967326-.0001113-.5780911-.1319981-.768-.36l-5-6c-.3374678-.4253155-.2739137-1.0422058.14318-1.389784.4170938-.3475781 1.0353317-.2988477 1.39282.109784l4.232 5.078 4.232-5.078c.2256201-.2843523.5876116-.4241148.9457805-.3651597.3581689.0589552.6562658.3073693.7788424.6490353.1225765.3416661.0503823.7229263-.1886229.9961244l-5 6c-.1899089.2280019-.4712674.3598887-.768.36z" fill="#fff"/></g></g></svg>