<svg height="511pt" viewBox="0 0 511.998 511" width="511pt" xmlns="http://www.w3.org/2000/svg"><path d="m42.234375 367.679688h29.9375v127.730468h-29.9375zm0 0" fill="#97de3d"/><path d="m69.140625 315.257812-11.9375-15.78125-11.9375 15.78125c-.429687.566407-10.617187 14.0625-20.945313 30.566407-20.140624 32.1875-22.46875 46.316406-22.46875 54.144531 0 30.523438 24.832032 55.351562 55.351563 55.351562s55.347656-24.828124 55.347656-55.351562c0-7.828125-2.328125-21.957031-22.46875-54.144531-10.324219-16.503907-20.511719-30-20.941406-30.566407zm0 0" fill="#59c36a"/><path d="m202.292969 315.257812-11.941407-15.78125-11.9375 15.78125c-.429687.566407-10.613281 14.0625-20.941406 30.566407-20.144531 32.1875-22.472656 46.316406-22.472656 54.144531 0 30.523438 24.832031 55.351562 55.351562 55.351562 30.523438 0 55.351563-24.828124 55.351563-55.351562 0-7.828125-2.328125-21.957031-22.46875-54.144531-10.328125-16.503907-20.515625-30-20.941406-30.566407zm0 0" fill="#59c36a"/><path d="m335.441406 315.257812-11.941406-15.78125-11.9375 15.78125c-.429688.566407-10.613281 14.0625-20.941406 30.566407-20.140625 32.1875-22.472656 46.316406-22.472656 54.144531 0 30.523438 24.832031 55.351562 55.351562 55.351562s55.351562-24.828124 55.351562-55.351562c0-7.828125-2.328124-21.957031-22.46875-54.144531-10.328124-16.503907-20.515624-30-20.941406-30.566407zm0 0" fill="#00a66c"/><path d="m489.53125 345.824219c-10.328125-16.503907-20.515625-30-20.945312-30.566407l-11.9375-15.78125-11.9375 15.78125c-.429688.566407-10.617188 14.0625-20.945313 30.566407-20.140625 32.1875-22.46875 46.316406-22.46875 54.144531 0 30.523438 24.832031 55.351562 55.351563 55.351562 30.519531 0 55.347656-24.828124 55.347656-55.351562.003906-7.828125-2.324219-21.957031-22.464844-54.144531zm0 0" fill="#00a66c"/><path d="m255.832031 119.902344c-20.230469 0-36.6875-16.457032-36.6875-36.683594v-4.09375h29.941407v4.09375c0 3.71875 3.023437 6.746094 6.746093 6.746094 3.71875 0 6.742188-3.027344 6.742188-6.746094v-4.09375h29.941406v4.09375c0 20.226562-16.457031 36.683594-36.683594 36.683594zm0 0" fill="#fdbf00"/><path d="m255.832031 119.902344v-29.9375c3.71875 0 6.742188-3.027344 6.742188-6.746094v-4.09375h29.941406v4.09375c0 20.226562-16.457031 36.683594-36.683594 36.683594zm0 0" fill="#f6a313"/><path d="m96.792969 119.902344c-20.226563 0-36.683594-16.457032-36.683594-36.683594v-4.09375h29.941406v4.09375c0 3.71875 3.023438 6.746094 6.742188 6.746094 3.722656 0 6.746093-3.027344 6.746093-6.746094v-4.09375h29.941407v4.09375c0 20.226562-16.457031 36.683594-36.6875 36.683594zm0 0" fill="#fdbf00"/><path d="m415.480469 119.902344c-20.230469 0-36.6875-16.457032-36.6875-36.683594v-4.09375h29.941406v4.09375c0 3.71875 3.027344 6.746094 6.746094 6.746094s6.746093-3.027344 6.746093-6.746094v-4.09375h29.9375v4.09375c0 20.226562-16.457031 36.683594-36.683593 36.683594zm0 0" fill="#f6a313"/><path d="m38.878906 20.265625h117.410156v71.832031h-117.410156zm0 0" fill="#cbe8f8"/><path d="m357.5625 20.265625h117.410156v71.832031h-117.410156zm0 0" fill="#9cd6f3"/><path d="m203.671875 154.742188c-2.457031 3.859374-3.261719 8.445312-2.269531 12.910156.992187 4.46875 3.667968 8.28125 7.519531 10.734375 2.785156 1.773437 5.945313 2.6875 9.167969 2.6875 1.246094 0 2.503906-.136719 3.75-.414063 4.46875-.992187 8.28125-3.664062 10.738281-7.527344 1.445313-2.269531 2.933594-5.585937 3.03125-12.953124l.324219-24.226563-21.8125 10.554687c-6.628906 3.207032-9.003906 5.960938-10.449219 8.234376zm0 0" fill="#00d7df"/><path d="m276.222656 154.742188c-2.457031 3.859374-3.265625 8.445312-2.273437 12.910156.992187 4.46875 3.664062 8.277344 7.527343 10.738281 2.78125 1.769531 5.941407 2.683594 9.164063 2.683594 1.246094 0 2.5-.136719 3.75-.414063 4.464844-.992187 8.277344-3.664062 10.738281-7.527344 1.441406-2.269531 2.933594-5.585937 3.03125-12.949218l.324219-24.226563-21.8125 10.550781c-6.632813 3.207032-9.003906 5.960938-10.449219 8.234376zm0 0" fill="#00aadf"/><path d="m241.601562 225.746094c-2.457031 3.859375-3.261718 8.445312-2.269531 12.910156.992188 4.46875 3.664063 8.28125 7.527344 10.738281 2.84375 1.808594 6.023437 2.675781 9.167969 2.675781 5.667968 0 11.21875-2.808593 14.480468-7.929687 1.441407-2.273437 2.933594-5.589844 3.03125-12.953125l.324219-24.226562-21.8125 10.550781c-6.632812 3.207031-9.003906 5.960937-10.449219 8.234375zm0 0" fill="#00d7df"/><path d="m255.832031 215.683594v36.378906c.0625 0 .128907.007812.195313.007812 5.667968 0 11.21875-2.808593 14.480468-7.929687 1.445313-2.273437 2.933594-5.589844 3.03125-12.953125l.324219-24.226562zm0 0" fill="#00aadf"/><path d="m46.679688 154.742188c-2.457032 3.859374-3.261719 8.445312-2.269532 12.910156.992188 4.46875 3.664063 8.28125 7.519532 10.734375 2.78125 1.773437 5.945312 2.6875 9.167968 2.6875 1.246094 0 2.503906-.136719 3.75-.414063 4.464844-.992187 8.277344-3.664062 10.734375-7.527344 1.445313-2.269531 2.9375-5.585937 3.035157-12.953124l.324218-24.226563-21.8125 10.554687c-6.632812 3.207032-9.003906 5.960938-10.449218 8.234376zm0 0" fill="#00d7df"/><path d="m119.226562 154.742188c-2.457031 3.859374-3.261718 8.445312-2.269531 12.910156.992188 4.46875 3.667969 8.28125 7.519531 10.734375 2.785157 1.773437 5.945313 2.6875 9.167969 2.6875 1.246094 0 2.503907-.136719 3.75-.414063 4.46875-.992187 8.28125-3.664062 10.738281-7.527344 1.445313-2.269531 2.933594-5.585937 3.03125-12.953124l.324219-24.226563-21.8125 10.554687c-6.632812 3.207032-9.003906 5.960938-10.449219 8.234376zm0 0" fill="#00d7df"/><path d="m84.609375 225.746094c-2.457031 3.859375-3.261719 8.445312-2.269531 12.910156.992187 4.46875 3.664062 8.285156 7.523437 10.738281 2.78125 1.769531 5.941407 2.683594 9.164063 2.683594 1.246094 0 2.503906-.136719 3.75-.414063 4.46875-.992187 8.28125-3.664062 10.738281-7.523437 1.441406-2.273437 2.933594-5.589844 3.03125-12.953125l.324219-24.226562-21.8125 10.550781c-6.632813 3.207031-9.003906 5.960937-10.449219 8.234375zm0 0" fill="#00d7df"/><path d="m365.363281 154.742188c-2.457031 3.859374-3.261719 8.445312-2.269531 12.910156.996094 4.46875 3.667969 8.28125 7.519531 10.734375 2.785157 1.773437 5.945313 2.6875 9.167969 2.6875 1.25 0 2.503906-.136719 3.75-.414063 4.46875-.992187 8.28125-3.664062 10.738281-7.527344 1.445313-2.269531 2.933594-5.585937 3.035157-12.953124l.320312-24.226563-21.8125 10.554687c-6.632812 3.207032-9.003906 5.960938-10.449219 8.234376zm0 0" fill="#00aadf"/><path d="m448.363281 146.507812c-6.632812 3.207032-9.003906 5.960938-10.453125 8.234376-2.453125 3.859374-3.261718 8.445312-2.269531 12.910156.996094 4.46875 3.667969 8.28125 7.519531 10.734375 2.785156 1.773437 5.949219 2.6875 9.171875 2.6875 1.246094 0 2.5-.136719 3.746094-.414063 4.46875-.992187 8.28125-3.664062 10.738281-7.527344 1.445313-2.269531 2.9375-5.585937 3.035156-12.953124l.320313-24.226563zm0 0" fill="#00aadf"/><path d="m403.292969 225.746094c-2.457031 3.859375-3.261719 8.445312-2.269531 12.910156.992187 4.46875 3.664062 8.285156 7.523437 10.738281 2.78125 1.769531 5.941406 2.683594 9.164063 2.683594 1.246093 0 2.503906-.136719 3.746093-.414063 4.472657-.992187 8.285157-3.664062 10.738281-7.523437 1.445313-2.273437 2.9375-5.589844 3.035157-12.953125l.320312-24.226562-21.808593 10.550781c-6.632813 3.207031-9.003907 5.960937-10.449219 8.234375zm0 0" fill="#00aadf"/><path d="m175.382812 367.679688h29.9375v127.730468h-29.9375zm0 0" fill="#97de3d"/><g fill="#59c36a"><path d="m308.53125 367.679688h29.941406v127.730468h-29.941406zm0 0"/><path d="m441.679688 367.679688h29.9375v127.730468h-29.9375zm0 0"/><path d="m.339844 481.117188h510.984375v29.941406h-510.984375zm0 0"/></g><path d="m255.832031 481.117188h255.492188v29.941406h-255.492188zm0 0" fill="#00a66c"/><path d="m69.140625 315.257812-11.9375-15.78125-11.9375 15.78125c-.136719.179688-1.25 1.652344-3.03125 4.105469v133.882813c4.761719 1.339844 9.78125 2.074218 14.96875 2.074218s10.207031-.734374 14.96875-2.074218v-133.882813c-1.78125-2.453125-2.894531-3.925781-3.03125-4.105469zm0 0" fill="#97de3d"/><path d="m202.292969 315.257812-11.941407-15.78125-11.9375 15.78125c-.136718.179688-1.25 1.652344-3.03125 4.105469v133.882813c4.765626 1.339844 9.78125 2.074218 14.96875 2.074218s10.207032-.734374 14.972657-2.074218v-133.882813c-1.785157-2.453125-2.898438-3.925781-3.03125-4.105469zm0 0" fill="#97de3d"/><path d="m335.441406 315.257812-11.941406-15.78125-11.9375 15.78125c-.136719.179688-1.25 1.652344-3.03125 4.105469v133.882813c4.765625 1.339844 9.78125 2.074218 14.96875 2.074218s10.207031-.734374 14.972656-2.074218v-133.882813c-1.785156-2.453125-2.898437-3.925781-3.03125-4.105469zm0 0" fill="#59c36a"/><path d="m468.585938 315.257812-11.9375-15.78125-11.9375 15.78125c-.136719.179688-1.25 1.652344-3.03125 4.105469v133.882813c4.765624 1.339844 9.78125 2.074218 14.96875 2.074218s10.207031-.734374 14.96875-2.074218v-133.882813c-1.78125-2.453125-2.894532-3.925781-3.03125-4.105469zm0 0" fill="#59c36a"/><path d="m197.125 20.265625h117.410156v71.832031h-117.410156zm0 0" fill="#cbe8f8"/><path d="m255.832031 20.265625h58.703125v71.832031h-58.703125zm0 0" fill="#9cd6f3"/><path d="m0 .5h511.660156v29.9375h-511.660156zm0 0" fill="#007a9f"/><path d="m255.832031.5h255.828125v29.9375h-255.828125zm0 0" fill="#00607f"/></svg>